<svg xmlns="http://www.w3.org/2000/svg" width="109" height="32" viewBox="0 0 109 32" fill="none"><path fill="#ffffff" fill-rule="evenodd" clip-rule="evenodd" d="M11 4a9 9 0 0 0-9 9v6a9 9 0 0 0 9 9h10a9 9 0 0 0 9-9v-6a9 9 0 0 0-9-9zm4.707 8.293a.997.997 0 0 1 .293.698V19a1 1 0 1 1-2 0v-3.586l-2.293 2.293a1 1 0 0 1-1.414 0L8 15.414V19a1 1 0 1 1-2 0v-6a.997.997 0 0 1 1-1 .997.997 0 0 1 .707.293L11 15.586l3.293-3.293a.997.997 0 0 1 .704-.293h.006c.255 0 .51.098.704.293zM23 13a1 1 0 1 0-2 0v4.006l-1.427-.997a1 1 0 0 0-1.146 1.64l3 2.095a1 1 0 0 0 1.124.015l3.172-2.096a1 1 0 0 0-1.103-1.669L23 17.065z"/><path fill="#e6edf3" transform="matrix(0.02364,0,0,0.02364,37.1015,24.5000)" d="M771 -3H664V-423L408 -74L406 -78L148 -438V-3H38V-578H167L407 -242L647 -578H771ZM1156 -381V-408H1254V-9H1156V-41L1149 -35Q1128 -17 1100 -10Q1073 0 1034 0Q976 0 929 -22Q878 -50 854 -93Q826 -137 826 -206Q826 -273 856 -321Q885 -370 933 -394Q978 -421 1037 -421Q1097 -421 1135 -396Q1135 -396 1156 -381ZM1047 -83Q1080 -83 1111.0 -103.5Q1142 -124 1156 -152V-265Q1142 -293 1111.0 -313.5Q1080 -334 1047 -334Q996 -334 962.0 -297.0Q928 -260 928 -208Q928 -174 944.0 -145.5Q960 -117 987.0 -100.0Q1014 -83 1047 -83ZM1417 -319 1412 -406H1318V-1H1422V-178Q1422 -214 1442 -250Q1463 -282 1498 -304Q1534 -323 1583 -322L1588 -422Q1559 -423 1528 -415Q1497 -407 1463 -375Q1436 -350 1417 -319ZM1736 1H1631V-719H1736V-278L1954 -441L2019 -378L1835 -239L2038 1H1915L1762 -183L1736 -163ZM2052 -212Q2052 -147 2082 -99Q2112 -51 2164 -26Q2215 -1 2282 -1Q2352 -1 2403 -28Q2455 -57 2483 -104Q2511 -153 2511 -212Q2511 -272 2483 -319Q2455 -367 2403 -394Q2353 -422 2283 -422Q2215 -422 2163 -394Q2111 -367 2081 -319Q2052 -273 2052 -212ZM2155 -211Q2155 -248 2171 -277Q2187 -305 2216 -324Q2245 -342 2281 -342Q2317 -342 2347 -324Q2376 -305 2392 -277Q2408 -249 2408 -211Q2408 -173 2392 -145Q2376 -115 2347 -97Q2316 -80 2281 -80Q2246 -80 2217 -97Q2189 -114 2171 -145Q2155 -173 2155 -211ZM2675 -330 2668 -405H2573V-1H2679V-185Q2679 -231 2695 -263Q2712 -299 2738 -317Q2767 -337 2801 -337Q2840 -336 2858 -316Q2875 -297 2877 -265V-1H2981V-300Q2981 -353 2941 -388Q2901 -422 2843 -422Q2781 -424 2737 -395Q2696 -368 2675 -330Z"/></svg>
