<svg xmlns="http://www.w3.org/2000/svg" viewBox="0 0 512 512"><path d="M480.0,256.0L479.5,335.8L478.1,364.3L475.7,385.3L472.3,402.2L467.8,416.4L462.4,428.5L455.8,439.0L448.0,448.0L439.0,455.8L428.5,462.4L416.4,467.8L402.2,472.3L385.3,475.7L364.3,478.1L335.8,479.5L255.9,480.0L176.2,479.5L147.7,478.1L126.7,475.7L109.8,472.3L95.6,467.8L83.5,462.4L73.0,455.8L64.0,448.0L56.2,439.0L49.6,428.5L44.2,416.4L39.7,402.2L36.3,385.3L33.9,364.3L32.5,335.8L32.0,255.8L32.5,176.2L33.9,147.7L36.3,126.7L39.7,109.8L44.2,95.6L49.6,83.5L56.2,73.0L64.0,64.0L73.0,56.2L83.5,49.6L95.6,44.2L109.8,39.7L126.7,36.3L147.7,33.9L176.2,32.5L256.1,32.0L335.8,32.5L364.3,33.9L385.3,36.3L402.2,39.7L416.4,44.2L428.5,49.6L439.0,56.2L448.0,64.0L455.8,73.0L462.4,83.5L467.8,95.6L472.3,109.8L475.7,126.7L478.1,147.7L479.5,176.2Z" fill="#ffffff"/><path d="M464.0,256.0L463.6,330.1L462.2,356.6L460.0,376.0L456.8,391.7L452.7,404.9L447.6,416.2L441.5,425.9L434.3,434.3L425.9,441.5L416.2,447.6L404.9,452.7L391.7,456.8L376.0,460.0L356.6,462.2L330.1,463.6L255.9,464.0L181.9,463.6L155.4,462.2L136.0,460.0L120.3,456.8L107.1,452.7L95.8,447.6L86.1,441.5L77.7,434.3L70.5,425.9L64.4,416.2L59.3,404.9L55.2,391.7L52.0,376.0L49.8,356.6L48.4,330.1L48.0,255.8L48.4,181.9L49.8,155.4L52.0,136.0L55.2,120.3L59.3,107.1L64.4,95.8L70.5,86.1L77.7,77.7L86.1,70.5L95.8,64.4L107.1,59.3L120.3,55.2L136.0,52.0L155.4,49.8L181.9,48.4L256.1,48.0L330.1,48.4L356.6,49.8L376.0,52.0L391.7,55.2L404.9,59.3L416.2,64.4L425.9,70.5L434.3,77.7L441.5,86.1L447.6,95.8L452.7,107.1L456.8,120.3L460.0,136.0L462.2,155.4L463.6,181.9Z" fill="#27ae60"/><g transform="translate(48,48) scale(13)" fill="#ffffff"><path d="M15.707 12.293a.997.997 0 0 1 .293.698V19a1 1 0 1 1-2 0v-3.586l-2.293 2.293a1 1 0 0 1-1.414 0L8 15.414V19a1 1 0 1 1-2 0v-6a.997.997 0 0 1 1-1 .997.997 0 0 1 .707.293L11 15.586l3.293-3.293a.997.997 0 0 1 .704-.293h.006c.255 0 .51.098.704.293zM23 13a1 1 0 1 0-2 0v4.006l-1.427-.997a1 1 0 0 0-1.146 1.64l3 2.095a1 1 0 0 0 1.124.015l3.172-2.096a1 1 0 0 0-1.103-1.669L23 17.065z"/></g></svg>
