<svg xmlns="http://www.w3.org/2000/svg" viewBox="0 0 512 512"><path d="M512.0,256.0L511.5,347.2L509.8,379.8L507.0,403.7L503.1,423.0L498.1,439.3L491.8,453.1L484.3,465.1L475.5,475.5L465.1,484.3L453.1,491.8L439.3,498.1L423.0,503.1L403.7,507.0L379.8,509.8L347.2,511.5L255.9,512.0L164.8,511.5L132.2,509.8L108.3,507.0L89.0,503.1L72.7,498.1L58.9,491.8L46.9,484.3L36.5,475.5L27.7,465.1L20.2,453.1L13.9,439.3L8.9,423.0L5.0,403.7L2.2,379.8L0.5,347.2L0.0,255.8L0.5,164.8L2.2,132.2L5.0,108.3L8.9,89.0L13.9,72.7L20.2,58.9L27.7,46.9L36.5,36.5L46.9,27.7L58.9,20.2L72.7,13.9L89.0,8.9L108.3,5.0L132.2,2.2L164.8,0.5L256.1,0.0L347.2,0.5L379.8,2.2L403.7,5.0L423.0,8.9L439.3,13.9L453.1,20.2L465.1,27.7L475.5,36.5L484.3,46.9L491.8,58.9L498.1,72.7L503.1,89.0L507.0,108.3L509.8,132.2L511.5,164.8Z" fill="#ffffff"/><path d="M496.0,256.0L495.5,341.5L493.9,372.1L491.4,394.5L487.7,412.6L483.0,427.8L477.1,440.8L470.1,452.1L461.7,461.7L452.1,470.1L440.8,477.1L427.8,483.0L412.6,487.7L394.5,491.4L372.1,493.9L341.5,495.5L255.9,496.0L170.5,495.5L139.9,493.9L117.5,491.4L99.4,487.7L84.2,483.0L71.2,477.1L59.9,470.1L50.3,461.7L41.9,452.1L34.9,440.8L29.0,427.8L24.3,412.6L20.6,394.5L18.1,372.1L16.5,341.5L16.0,255.8L16.5,170.5L18.1,139.9L20.6,117.5L24.3,99.4L29.0,84.2L34.9,71.2L41.9,59.9L50.3,50.3L59.9,41.9L71.2,34.9L84.2,29.0L99.4,24.3L117.5,20.6L139.9,18.1L170.5,16.5L256.1,16.0L341.5,16.5L372.1,18.1L394.5,20.6L412.6,24.3L427.8,29.0L440.8,34.9L452.1,41.9L461.7,50.3L470.1,59.9L477.1,71.2L483.0,84.2L487.7,99.4L491.4,117.5L493.9,139.9L495.5,170.5Z" fill="#27ae60"/><g transform="translate(16,16) scale(15)" fill="#ffffff"><path d="M15.707 12.293a.997.997 0 0 1 .293.698V19a1 1 0 1 1-2 0v-3.586l-2.293 2.293a1 1 0 0 1-1.414 0L8 15.414V19a1 1 0 1 1-2 0v-6a.997.997 0 0 1 1-1 .997.997 0 0 1 .707.293L11 15.586l3.293-3.293a.997.997 0 0 1 .704-.293h.006c.255 0 .51.098.704.293zM23 13a1 1 0 1 0-2 0v4.006l-1.427-.997a1 1 0 0 0-1.146 1.64l3 2.095a1 1 0 0 0 1.124.015l3.172-2.096a1 1 0 0 0-1.103-1.669L23 17.065z"/></g></svg>
