<svg xmlns="http://www.w3.org/2000/svg" viewBox="0 0 800 800" width="800" height="800">
  <rect width="800" height="800" fill="#FAFAF7"/>

  <!-- search bar zone -->
  <line x1="60" y1="110" x2="740" y2="110" stroke="#E5E7EB"/>
  <text x="92" y="150" font-family="ui-sans-serif, system-ui" font-size="22" font-weight="500" fill="#111827">script</text>
  <rect x="164" y="128" width="2" height="26" fill="#111827"/>
  <line x1="60" y1="174" x2="740" y2="174" stroke="#E5E7EB"/>

  <!-- ESC hint -->
  <g transform="translate(345 192)">
    <rect width="42" height="22" rx="4" fill="#FFFFFF" stroke="#D1D5DB"/>
    <text x="21" y="16" font-family="ui-sans-serif, system-ui" font-size="11" font-weight="700" fill="#4B5563" text-anchor="middle">ESC</text>
  </g>
  <text x="395" y="208" font-family="ui-sans-serif, system-ui" font-size="13" fill="#6B7280">to close</text>

  <!-- result 1 : focused -->
  <g>
    <rect x="60" y="244" width="680" height="118" rx="6" fill="#F4F6FA"/>
    <rect x="60" y="244" width="4" height="118" fill="#3B82F6"/>
    <rect x="92" y="266" rx="2" width="190" height="14" fill="#111827"/>
    <rect x="92" y="290" rx="2" width="380" height="10" fill="#9CA3AF"/>
    <rect x="92" y="320" rx="2" width="620" height="8" fill="#9CA3AF"/>
    <rect x="172" y="320" rx="2" width="34" height="8" fill="#3B82F6"/>
    <rect x="320" y="320" rx="2" width="38" height="8" fill="#3B82F6"/>
    <rect x="490" y="320" rx="2" width="34" height="8" fill="#3B82F6"/>
    <rect x="92" y="338" rx="2" width="540" height="8" fill="#9CA3AF"/>
    <rect x="208" y="338" rx="2" width="34" height="8" fill="#3B82F6"/>
  </g>

  <line x1="92" y1="372" x2="708" y2="372" stroke="#F3F4F6"/>

  <!-- result 2 -->
  <g>
    <rect x="92" y="396" rx="2" width="150" height="14" fill="#111827"/>
    <rect x="92" y="420" rx="2" width="420" height="10" fill="#9CA3AF"/>
    <rect x="92" y="450" rx="2" width="620" height="8" fill="#9CA3AF"/>
    <rect x="262" y="450" rx="2" width="42" height="8" fill="#3B82F6"/>
    <rect x="92" y="468" rx="2" width="480" height="8" fill="#9CA3AF"/>
  </g>

  <line x1="92" y1="502" x2="708" y2="502" stroke="#F3F4F6"/>

  <!-- result 3 -->
  <g>
    <rect x="92" y="526" rx="2" width="110" height="14" fill="#111827"/>
    <rect x="92" y="550" rx="2" width="320" height="10" fill="#9CA3AF"/>
    <rect x="92" y="580" rx="2" width="620" height="8" fill="#9CA3AF"/>
    <rect x="162" y="580" rx="2" width="34" height="8" fill="#3B82F6"/>
    <rect x="280" y="580" rx="2" width="42" height="8" fill="#3B82F6"/>
    <rect x="450" y="580" rx="2" width="42" height="8" fill="#3B82F6"/>
    <rect x="92" y="598" rx="2" width="560" height="8" fill="#9CA3AF"/>
  </g>

  <line x1="92" y1="632" x2="708" y2="632" stroke="#F3F4F6"/>

  <!-- result 4 -->
  <g>
    <rect x="92" y="656" rx="2" width="220" height="14" fill="#111827"/>
    <rect x="92" y="680" rx="2" width="380" height="10" fill="#9CA3AF"/>
    <rect x="92" y="710" rx="2" width="620" height="8" fill="#9CA3AF"/>
    <rect x="320" y="710" rx="2" width="42" height="8" fill="#3B82F6"/>
    <rect x="500" y="710" rx="2" width="34" height="8" fill="#3B82F6"/>
    <rect x="92" y="728" rx="2" width="520" height="8" fill="#9CA3AF"/>
  </g>
</svg>
