<svg xmlns="http://www.w3.org/2000/svg" viewBox="0 0 800 800" width="800" height="800">
  <defs>
    <filter id="sh" x="-20%" y="-20%" width="140%" height="140%">
      <feGaussianBlur in="SourceAlpha" stdDeviation="6"/>
      <feOffset dy="6"/>
      <feComponentTransfer><feFuncA type="linear" slope="0.10"/></feComponentTransfer>
      <feMerge><feMergeNode/><feMergeNode in="SourceGraphic"/></feMerge>
    </filter>
    <filter id="btnSh" x="-20%" y="-20%" width="140%" height="140%">
      <feGaussianBlur in="SourceAlpha" stdDeviation="4"/>
      <feOffset dy="4"/>
      <feComponentTransfer><feFuncA type="linear" slope="0.20"/></feComponentTransfer>
      <feMerge><feMergeNode/><feMergeNode in="SourceGraphic"/></feMerge>
    </filter>
    <clipPath id="cardClip">
      <rect x="100" y="135" width="600" height="525" rx="16"/>
    </clipPath>
  </defs>
  <rect width="800" height="800" fill="#FAFAF7"/>

  <g transform="translate(0 15)">
  <g filter="url(#sh)">
    <rect x="100" y="120" width="600" height="525" rx="16" fill="#FFFFFF" stroke="#E5E7EB"/>
    <circle cx="125" cy="148" r="6" fill="#FF5F57"/>
    <circle cx="145" cy="148" r="6" fill="#FEBC2E"/>
    <circle cx="165" cy="148" r="6" fill="#28C840"/>
    <text x="400" y="153" font-family="ui-monospace, SFMono-Regular, Menlo, monospace" font-size="13" fill="#6B7280" text-anchor="middle">notes.md
      <tspan fill="#FB7185" font-weight="700">  *</tspan>
    </text>
    <line x1="100" y1="176" x2="700" y2="176" stroke="#E5E7EB"/>

    <g clip-path="url(#cardClip)">
      <!-- left source (GitHub light) -->
      <rect x="100" y="176" width="300" height="469" fill="#F6F8FA"/>
      <!-- gutter line numbers -->
      <g font-family="ui-monospace, SFMono-Regular, Menlo, monospace" font-size="11" fill="#8B949E">
        <text x="125" y="210" text-anchor="end">1</text>
        <text x="125" y="234" text-anchor="end">2</text>
        <text x="125" y="258" text-anchor="end">3</text>
        <text x="125" y="282" text-anchor="end">4</text>
        <text x="125" y="306" text-anchor="end">5</text>
        <text x="125" y="330" text-anchor="end">6</text>
        <text x="125" y="354" text-anchor="end">7</text>
        <text x="125" y="378" text-anchor="end">8</text>
        <text x="125" y="402" text-anchor="end">9</text>
      </g>
      <line x1="135" y1="186" x2="135" y2="645" stroke="#D0D7DE"/>
      <g font-family="ui-monospace, SFMono-Regular, Menlo, monospace" font-size="14" fill="#24292F">
        <text x="148" y="210" fill="#0550AE"># Title</text>
        <text x="148" y="234"></text>
        <text x="148" y="258">Some intro <tspan fill="#953800">**bold**</tspan> text.</text>
        <text x="148" y="282"></text>
        <text x="148" y="306" fill="#0550AE">- list item one</text>
        <text x="148" y="330" fill="#0550AE">- list item two</text>
        <text x="148" y="354"></text>
        <text x="148" y="378" fill="#953800">```bash</text>
        <text x="148" y="402">$ markon serve</text>
      </g>
      <!-- caret -->
      <rect x="248" y="392" width="2" height="16" fill="#0969DA"/>

      <!-- right rendered -->
      <rect x="400" y="176" width="300" height="469" fill="#FFFFFF"/>
      <rect x="430" y="208" rx="3" width="160" height="14" fill="#111827"/>
      <rect x="430" y="252" rx="2" width="240" height="8" fill="#9CA3AF"/>
      <rect x="430" y="266" rx="2" width="200" height="8" fill="#9CA3AF"/>
      <!-- list -->
      <circle cx="438" cy="302" r="3" fill="#3B82F6"/>
      <rect x="450" y="298" rx="2" width="200" height="8" fill="#9CA3AF"/>
      <circle cx="438" cy="322" r="3" fill="#3B82F6"/>
      <rect x="450" y="318" rx="2" width="180" height="8" fill="#9CA3AF"/>
      <!-- code block -->
      <rect x="430" y="356" rx="6" width="240" height="56" fill="#0F172A"/>
      <text x="442" y="388" font-family="ui-monospace, SFMono-Regular, Menlo, monospace" font-size="13" fill="#86E5A4">$ markon serve</text>

      <!-- divider -->
      <line x1="400" y1="176" x2="400" y2="645" stroke="#E5E7EB"/>
    </g>
  </g>

  <!-- floating Save button -->
  <g filter="url(#btnSh)">
    <rect x="320" y="615" width="160" height="48" rx="24" fill="#3B82F6"/>
    <text x="400" y="645" font-family="ui-sans-serif, system-ui" font-size="15" font-weight="700" fill="#FFFFFF" text-anchor="middle">Save Changes</text>
  </g>
  </g>
</svg>
