<svg xmlns="http://www.w3.org/2000/svg" viewBox="0 0 800 800" width="800" height="800">
  <defs>
    <filter id="sh" x="-20%" y="-20%" width="140%" height="140%">
      <feGaussianBlur in="SourceAlpha" stdDeviation="6"/>
      <feOffset dy="6"/>
      <feComponentTransfer><feFuncA type="linear" slope="0.10"/></feComponentTransfer>
      <feMerge><feMergeNode/><feMergeNode in="SourceGraphic"/></feMerge>
    </filter>
  </defs>
  <rect width="800" height="800" fill="#FAFAF7"/>

  <!-- Windows composition (CLI + GUI), scaled 0.9, centered on the canvas -->
  <g transform="translate(40 67) scale(0.9)">

    <!-- CLI terminal (back layer) — abstract bars instead of literal output -->
    <g filter="url(#sh)">
      <rect x="60" y="100" width="460" height="540" rx="12" fill="#0F1116"/>
      <path d="M 60 112 a12 12 0 0 1 12 -12 h436 a12 12 0 0 1 12 12 v20 h-460 z" fill="#1A1D24"/>
      <circle cx="80" cy="116" r="5" fill="#FF5F57"/>
      <circle cx="96" cy="116" r="5" fill="#FEBC2E"/>
      <circle cx="112" cy="116" r="5" fill="#28C840"/>

      <rect x="76" y="158" width="8" height="10" rx="2" fill="#7EE787"/>
      <rect x="92" y="160" width="220" height="6" rx="2" fill="#E6EDF3" opacity="0.85"/>

      <rect x="76" y="184" width="8" height="10" rx="2" fill="#7EE787"/>
      <rect x="92" y="186" width="140" height="6" rx="2" fill="#8B949E"/>

      <rect x="76" y="218" width="8" height="10" rx="2" fill="#7EE787"/>
      <rect x="92" y="220" width="280" height="6" rx="2" fill="#E6EDF3" opacity="0.85"/>

      <rect x="76" y="248" width="56" height="6" rx="2" fill="#E6EDF3" opacity="0.85"/>
      <rect x="140" y="248" width="60" height="6" rx="2" fill="#8B949E"/>

      <rect x="76" y="278" width="8" height="10" rx="2" fill="#7EE787"/>
      <rect x="92" y="280" width="200" height="6" rx="2" fill="#8B949E"/>

      <rect x="76" y="304" width="240" height="6" rx="2" fill="#8B949E"/>

      <rect x="76" y="336" width="44" height="6" rx="2" fill="#8B949E"/>
      <rect x="130" y="336" width="186" height="6" rx="2" fill="#79C0FF"/>

      <rect x="76" y="358" width="44" height="6" rx="2" fill="#8B949E"/>
      <rect x="130" y="358" width="186" height="6" rx="2" fill="#D2A8FF"/>

      <rect x="76" y="394" width="160" height="6" rx="2" fill="#8B949E"/>

      <g transform="translate(76 414)" fill="#C9D1D9">
        <rect x="0" y="0" width="36" height="36"/>
        <rect x="12" y="12" width="12" height="12" fill="#0F1116"/>
        <rect x="120" y="0" width="36" height="36"/>
        <rect x="132" y="12" width="12" height="12" fill="#0F1116"/>
        <rect x="0" y="120" width="36" height="36"/>
        <rect x="12" y="132" width="12" height="12" fill="#0F1116"/>

        <rect x="48" y="0" width="12" height="12"/>
        <rect x="72" y="0" width="12" height="12"/>
        <rect x="96" y="0" width="12" height="12"/>
        <rect x="60" y="12" width="12" height="12"/>
        <rect x="84" y="12" width="12" height="12"/>
        <rect x="108" y="12" width="12" height="12"/>
        <rect x="48" y="24" width="12" height="12"/>
        <rect x="84" y="24" width="12" height="12"/>
        <rect x="108" y="24" width="12" height="12"/>

        <rect x="12" y="36" width="12" height="12"/>
        <rect x="0" y="48" width="12" height="12"/>
        <rect x="24" y="48" width="12" height="12"/>
        <rect x="12" y="60" width="12" height="12"/>
        <rect x="24" y="72" width="12" height="12"/>
        <rect x="0" y="84" width="12" height="12"/>
        <rect x="12" y="96" width="12" height="12"/>
        <rect x="24" y="108" width="12" height="12"/>

        <rect x="48" y="36" width="12" height="12"/>
        <rect x="72" y="36" width="12" height="12"/>
        <rect x="96" y="36" width="12" height="12"/>
        <rect x="120" y="36" width="12" height="12"/>
        <rect x="144" y="36" width="12" height="12"/>

        <rect x="36" y="48" width="12" height="12"/>
        <rect x="60" y="48" width="12" height="12"/>
        <rect x="96" y="48" width="12" height="12"/>
        <rect x="132" y="48" width="12" height="12"/>

        <rect x="48" y="60" width="12" height="12"/>
        <rect x="84" y="60" width="12" height="12"/>
        <rect x="108" y="60" width="12" height="12"/>
        <rect x="120" y="60" width="12" height="12"/>
        <rect x="144" y="60" width="12" height="12"/>

        <rect x="60" y="72" width="12" height="12"/>
        <rect x="72" y="72" width="12" height="12"/>
        <rect x="96" y="72" width="12" height="12"/>
        <rect x="132" y="72" width="12" height="12"/>

        <rect x="48" y="84" width="12" height="12"/>
        <rect x="84" y="84" width="12" height="12"/>
        <rect x="120" y="84" width="12" height="12"/>
        <rect x="144" y="84" width="12" height="12"/>

        <rect x="36" y="96" width="12" height="12"/>
        <rect x="72" y="96" width="12" height="12"/>
        <rect x="96" y="96" width="12" height="12"/>
        <rect x="132" y="96" width="12" height="12"/>

        <rect x="48" y="108" width="12" height="12"/>
        <rect x="84" y="108" width="12" height="12"/>
        <rect x="108" y="108" width="12" height="12"/>
        <rect x="144" y="108" width="12" height="12"/>

        <rect x="48" y="120" width="12" height="12"/>
        <rect x="72" y="120" width="12" height="12"/>
        <rect x="108" y="120" width="12" height="12"/>
        <rect x="132" y="120" width="12" height="12"/>
        <rect x="144" y="120" width="12" height="12"/>

        <rect x="36" y="132" width="12" height="12"/>
        <rect x="60" y="132" width="12" height="12"/>
        <rect x="84" y="132" width="12" height="12"/>
        <rect x="120" y="132" width="12" height="12"/>
        <rect x="144" y="132" width="12" height="12"/>

        <rect x="48" y="144" width="12" height="12"/>
        <rect x="72" y="144" width="12" height="12"/>
        <rect x="96" y="144" width="12" height="12"/>
        <rect x="120" y="144" width="12" height="12"/>
        <rect x="144" y="144" width="12" height="12"/>
      </g>

      <rect x="76" y="606" width="7" height="2" fill="#7EE787"/>
    </g>

    <!-- GUI window (About page, abstract) -->
    <g filter="url(#sh)">
      <rect x="300" y="220" width="440" height="380" rx="10" fill="#FFFFFF"/>
      <path d="M 300 230 a10 10 0 0 1 10 -10 h420 a10 10 0 0 1 10 10 v22 h-440 z" fill="#F8F9FA"/>
      <line x1="300" y1="252" x2="740" y2="252" stroke="#E5E7EB" stroke-width="1"/>
      <circle cx="318" cy="236" r="5" fill="#FF5F57"/>
      <circle cx="334" cy="236" r="5" fill="#FEBC2E"/>
      <circle cx="350" cy="236" r="5" fill="#28C840"/>

      <rect x="328" y="270" width="36" height="6" rx="2" fill="#9CA3AF"/>
      <rect x="380" y="270" width="56" height="6" rx="2" fill="#9CA3AF"/>
      <rect x="452" y="270" width="24" height="6" rx="2" fill="#9CA3AF"/>
      <rect x="492" y="270" width="34" height="6" rx="2" fill="#27ae60"/>
      <rect x="488" y="282" width="42" height="2" rx="1" fill="#27ae60"/>
      <line x1="300" y1="290" x2="740" y2="290" stroke="#E5E7EB" stroke-width="1"/>

      <g transform="translate(484 312) scale(2.25)" fill="#27ae60">
        <path fill-rule="evenodd" clip-rule="evenodd" d="M11 4a9 9 0 0 0-9 9v6a9 9 0 0 0 9 9h10a9 9 0 0 0 9-9v-6a9 9 0 0 0-9-9zm4.707 8.293a.997.997 0 0 1 .293.698V19a1 1 0 1 1-2 0v-3.586l-2.293 2.293a1 1 0 0 1-1.414 0L8 15.414V19a1 1 0 1 1-2 0v-6a.997.997 0 0 1 1-1 .997.997 0 0 1 .707.293L11 15.586l3.293-3.293a.997.997 0 0 1 .704-.293h.006c.255 0 .51.098.704.293zM23 13a1 1 0 1 0-2 0v4.006l-1.427-.997a1 1 0 0 0-1.146 1.64l3 2.095a1 1 0 0 0 1.124.015l3.172-2.096a1 1 0 0 0-1.103-1.669L23 17.065z"/>
      </g>

      <rect x="468" y="416" width="104" height="14" rx="3" fill="#111827"/>
      <rect x="478" y="438" width="84" height="6" rx="2" fill="#9CA3AF"/>

      <rect x="378" y="466" width="284" height="6" rx="2" fill="#9CA3AF"/>
      <rect x="408" y="478" width="224" height="6" rx="2" fill="#9CA3AF"/>

      <g transform="translate(376 502)">
        <rect x="0" y="0" width="74" height="26" rx="13" fill="#27ae60"/>
        <rect x="80" y="0" width="64" height="26" rx="13" fill="#FFFFFF" stroke="#E5E7EB"/>
        <rect x="150" y="0" width="64" height="26" rx="13" fill="#FFFFFF" stroke="#E5E7EB"/>
        <rect x="220" y="0" width="64" height="26" rx="13" fill="#FFFFFF" stroke="#E5E7EB"/>
      </g>

      <rect x="436" y="552" width="168" height="6" rx="2" fill="#27ae60" opacity="0.65"/>
    </g>

  </g>

</svg>
